<svg width="52" height="53" viewBox="0 0 52 53" fill="none" xmlns="http://www.w3.org/2000/svg">
<path d="M51.73 0.420013H0V52.15H51.73V0.420013Z" fill="#04134E"/>
<path d="M25.79 14.89C26.3833 14.89 26.9633 14.714 27.4567 14.3844C27.95 14.0548 28.3346 13.5862 28.5616 13.038C28.7887 12.4899 28.8481 11.8867 28.7323 11.3047C28.6166 10.7228 28.3309 10.1882 27.9113 9.76867C27.4917 9.34911 26.9572 9.06339 26.3752 8.94763C25.7933 8.83187 25.1901 8.89128 24.6419 9.11835C24.0937 9.34541 23.6252 9.72993 23.2956 10.2233C22.9659 10.7166 22.79 11.2966 22.79 11.89C22.79 12.6856 23.106 13.4487 23.6687 14.0113C24.2313 14.5739 24.9943 14.89 25.79 14.89Z" fill="white"/>
<path d="M16.95 23.11V23.83L18.2 25.08H33.53L34.77 23.84V23.11L33.68 22.01H18.05L16.95 23.11Z" fill="white"/>
<path d="M16.95 42.63V43.91H34.77V42.63L33.68 41.53H18.05L16.95 42.63Z" fill="white"/>
<path d="M33.52 26.15H18.05V40.52H33.52V26.15Z" fill="white"/>
<path d="M29.71 15.41H21.87L20.33 17V21H31.26V17L29.71 15.41ZM26.6 20.49H25V17.49H26.6V20.49ZM26.6 17.02H25V15.86H26.6V17.02Z" fill="white"/>
</svg>
