<svg width="19" height="36" viewBox="0 0 19 36" fill="none" xmlns="http://www.w3.org/2000/svg">
<path d="M9.79001 6.89C10.3833 6.89 10.9633 6.714 11.4567 6.3844C11.95 6.0548 12.3346 5.5862 12.5616 5.038C12.7887 4.4899 12.8481 3.8867 12.7323 3.3047C12.6166 2.7228 12.3309 2.1882 11.9113 1.76867C11.4917 1.34911 10.9572 1.06339 10.3752 0.947632C9.79331 0.831872 9.19011 0.891282 8.64191 1.11835C8.09371 1.34541 7.62521 1.72993 7.29561 2.2233C6.96591 2.7166 6.79001 3.2966 6.79001 3.89C6.79001 4.6856 7.10601 5.4487 7.66871 6.0113C8.23131 6.5739 8.99431 6.89 9.79001 6.89Z" fill="white"/>
<path d="M0.950012 15.11V15.83L2.20001 17.08H17.53L18.77 15.84V15.11L17.68 14.01H2.05001L0.950012 15.11Z" fill="white"/>
<path d="M0.950012 34.63V35.91H18.77V34.63L17.68 33.53H2.05001L0.950012 34.63Z" fill="white"/>
<path d="M17.52 18.15H2.05001V32.52H17.52V18.15Z" fill="white"/>
<path d="M13.71 7.41H5.87001L4.33001 9V13H15.26V9L13.71 7.41ZM10.6 12.49H9.00001V9.49H10.6V12.49ZM10.6 9.02H9.00001V7.86H10.6V9.02Z" fill="white"/>
</svg>
