<svg width="52" height="53" viewBox="0 0 52 53" fill="none" xmlns="http://www.w3.org/2000/svg">
<path d="M51.73 0.429993H0V52.16H51.73V0.429993Z" fill="#04134E"/>
<path d="M38.96 32.03H33.09V43.87H38.96V32.03Z" fill="white"/>
<path d="M31.95 32.03H26.07V43.87H31.95V32.03Z" fill="white"/>
<path d="M32.52 14.21C32.1245 14.21 31.7378 14.3273 31.4089 14.5471C31.08 14.7668 30.8236 15.0792 30.6723 15.4446C30.5209 15.8101 30.4813 16.2122 30.5585 16.6002C30.6356 16.9881 30.8261 17.3445 31.1058 17.6242C31.3855 17.9039 31.7419 18.0944 32.1298 18.1716C32.5178 18.2487 32.9199 18.2091 33.2854 18.0578C33.6508 17.9064 33.9632 17.65 34.183 17.3211C34.4027 16.9922 34.52 16.6056 34.52 16.21C34.52 15.6796 34.3093 15.1709 33.9342 14.7958C33.5592 14.4207 33.0505 14.21 32.52 14.21Z" fill="white"/>
<path d="M6 43.87H18.2V19.71H6V43.87ZM13.5 22.24H15.43V26.11H13.5V22.24ZM13.5 29.85H15.43V33.73H13.5V29.85ZM13.5 37.48H15.43V41.35H13.5V37.48ZM8.73 22.24H10.66V26.11H8.73V22.24ZM8.73 29.85H10.66V33.73H8.73V29.85ZM8.73 37.48H10.66V41.35H8.73V37.48Z" fill="white"/>
<path d="M32.52 8.70999L19.3 16.15V43.87H24.93V31.46C24.9326 31.3096 24.9934 31.1661 25.0998 31.0598C25.2061 30.9534 25.3496 30.8926 25.5 30.89H39.5C39.6512 30.89 39.7961 30.95 39.903 31.0569C40.0099 31.1638 40.07 31.3088 40.07 31.46V43.87H45.7V16.13L32.52 8.70999ZM26.52 28.71H22.64V26.75H26.51L26.52 28.71ZM26.52 24.21H22.64V22.24H26.51L26.52 24.21ZM34.46 28.71H30.58V26.75H34.45L34.46 28.71ZM34.46 24.21H30.58V22.24H34.45L34.46 24.21ZM32.52 19.3C31.904 19.302 31.3014 19.121 30.7884 18.78C30.2754 18.4391 29.8753 17.9534 29.6387 17.3848C29.402 16.8161 29.3396 16.1899 29.4593 15.5857C29.579 14.9815 29.8754 14.4264 30.3109 13.9909C30.7464 13.5554 31.3015 13.259 31.9057 13.1393C32.5099 13.0196 33.1361 13.082 33.7048 13.3187C34.2734 13.5553 34.7591 13.9554 35.1 14.4684C35.441 14.9814 35.622 15.584 35.62 16.2C35.6174 17.0214 35.2899 17.8083 34.7091 18.3891C34.1283 18.9699 33.3413 19.2974 32.52 19.3ZM42.4 28.68H38.53V26.75H42.4V28.68ZM42.4 24.18H38.53V22.24H42.4V24.18Z" fill="white"/>
</svg>
