<svg width="40" height="36" viewBox="0 0 40 36" fill="none" xmlns="http://www.w3.org/2000/svg">
<path d="M32.96 24.03H27.09V35.87H32.96V24.03Z" fill="white"/>
<path d="M25.95 24.03H20.07V35.87H25.95V24.03Z" fill="white"/>
<path d="M26.52 6.21C26.1245 6.21 25.7378 6.3273 25.4089 6.5471C25.08 6.7668 24.8236 7.0792 24.6723 7.4446C24.5209 7.8101 24.4813 8.2122 24.5585 8.6002C24.6356 8.9881 24.8261 9.3445 25.1058 9.6242C25.3855 9.9039 25.7419 10.0944 26.1298 10.1716C26.5178 10.2487 26.9199 10.2091 27.2854 10.0578C27.6508 9.9064 27.9632 9.65 28.183 9.3211C28.4027 8.9922 28.52 8.6056 28.52 8.21C28.52 7.6796 28.3093 7.1709 27.9342 6.7958C27.5592 6.4207 27.0505 6.21 26.52 6.21Z" fill="white"/>
<path d="M0 35.87H12.2V11.71H0V35.87ZM7.5 14.24H9.43V18.11H7.5V14.24ZM7.5 21.85H9.43V25.73H7.5V21.85ZM7.5 29.48H9.43V33.35H7.5V29.48ZM2.73 14.24H4.66V18.11H2.73V14.24ZM2.73 21.85H4.66V25.73H2.73V21.85ZM2.73 29.48H4.66V33.35H2.73V29.48Z" fill="white"/>
<path d="M26.52 0.709991L13.3 8.15V35.87H18.93V23.46C18.9326 23.3096 18.9934 23.1661 19.0998 23.0598C19.2061 22.9534 19.3496 22.8926 19.5 22.89H33.5C33.6512 22.89 33.7961 22.95 33.903 23.0569C34.0099 23.1638 34.07 23.3088 34.07 23.46V35.87H39.7V8.13L26.52 0.709991ZM20.52 20.71H16.64V18.75H20.51L20.52 20.71ZM20.52 16.21H16.64V14.24H20.51L20.52 16.21ZM28.46 20.71H24.58V18.75H28.45L28.46 20.71ZM28.46 16.21H24.58V14.24H28.45L28.46 16.21ZM26.52 11.3C25.904 11.302 25.3014 11.121 24.7884 10.78C24.2754 10.4391 23.8753 9.9534 23.6387 9.3848C23.402 8.8161 23.3396 8.1899 23.4593 7.5857C23.579 6.9815 23.8754 6.4264 24.3109 5.9909C24.7464 5.5554 25.3015 5.259 25.9057 5.1393C26.5099 5.0196 27.1361 5.082 27.7048 5.3187C28.2734 5.5553 28.7591 5.9554 29.1 6.4684C29.441 6.9814 29.622 7.584 29.62 8.2C29.6174 9.0214 29.2899 9.8083 28.7091 10.3891C28.1283 10.9699 27.3413 11.2974 26.52 11.3ZM36.4 20.68H32.53V18.75H36.4V20.68ZM36.4 16.18H32.53V14.24H36.4V16.18Z" fill="white"/>
</svg>
