<svg width="52" height="52" viewBox="0 0 52 52" fill="none" xmlns="http://www.w3.org/2000/svg">
<path d="M51.73 0H0V51.73H51.73V0Z" fill="#04134E"/>
<path d="M25.87 15.99C26.5809 15.992 27.2763 15.7829 27.8682 15.3892C28.4601 14.9954 28.9218 14.4349 29.1948 13.7785C29.4677 13.1221 29.5397 12.3994 29.4015 11.7021C29.2633 11.0048 28.9212 10.3642 28.4185 9.86152C27.9158 9.35885 27.2752 9.01673 26.5779 8.87852C25.8806 8.74032 25.1579 8.81226 24.5015 9.08522C23.8451 9.35817 23.2846 9.81986 22.8908 10.4118C22.4971 11.0037 22.288 11.6991 22.29 12.41C22.2926 13.3587 22.6707 14.2677 23.3415 14.9385C24.0123 15.6094 24.9213 15.9874 25.87 15.99Z" fill="white"/>
<path d="M36.79 17.78C37.4981 17.78 38.1902 17.57 38.779 17.1767C39.3677 16.7833 39.8265 16.2242 40.0975 15.57C40.3685 14.9158 40.4394 14.196 40.3012 13.5016C40.1631 12.8071 39.8221 12.1692 39.3215 11.6686C38.8208 11.1679 38.1829 10.8269 37.4884 10.6888C36.794 10.5507 36.0742 10.6215 35.42 10.8925C34.7659 11.1635 34.2067 11.6223 33.8134 12.2111C33.42 12.7998 33.21 13.4919 33.21 14.2C33.21 15.1495 33.5872 16.0601 34.2586 16.7314C34.93 17.4028 35.8405 17.78 36.79 17.78Z" fill="white"/>
<path d="M15 17.78C15.708 17.78 16.4002 17.57 16.9889 17.1767C17.5777 16.7833 18.0365 16.2242 18.3075 15.57C18.5784 14.9158 18.6493 14.196 18.5112 13.5016C18.3731 12.8071 18.0321 12.1692 17.5314 11.6686C17.0308 11.1679 16.3929 10.8269 15.6984 10.6888C15.004 10.5507 14.2841 10.6215 13.63 10.8925C12.9758 11.1635 12.4167 11.6223 12.0233 12.2111C11.6299 12.7998 11.42 13.4919 11.42 14.2C11.42 15.1495 11.7972 16.0601 12.4685 16.7314C13.1399 17.4028 14.0505 17.78 15 17.78Z" fill="white"/>
<path d="M34 30.12L32.3 31.83V42.2L33.81 43.71H39.77L41.61 41.87V32.96L43.31 31.25V20.76L41.47 18.92H34V30.12Z" fill="white"/>
<path d="M10.13 41.87L11.97 43.71H17.92L19.44 42.2V31.83L17.73 30.13V18.92H10.27L8.41998 20.76V31.26L10.13 32.96V41.87Z" fill="white"/>
<path d="M30.54 17.12H21.19L19.34 18.96V29.46L21.04 31.16V41.88L22.89 43.72H28.84L30.69 41.88V31.16L32.39 29.46V18.97L30.54 17.12ZM26.61 17.78L26.29 18.88H25.45L25.12 17.8L26.61 17.78ZM25.87 27.96L24.74 26.29L25.44 19.29H26.29L27 26.29L25.87 27.96Z" fill="white"/>
</svg>
