<svg width="36" height="36" viewBox="0 0 36 36" fill="none" xmlns="http://www.w3.org/2000/svg">
<path d="M17.87 7.98997C18.5809 7.99197 19.2763 7.78287 19.8682 7.38917C20.4601 6.99537 20.9218 6.43487 21.1948 5.77847C21.4677 5.12207 21.5397 4.39937 21.4015 3.70207C21.2633 3.00477 20.9212 2.36417 20.4185 1.86149C19.9158 1.35882 19.2752 1.0167 18.5779 0.878491C17.8806 0.740291 17.1579 0.812232 16.5015 1.08519C15.8451 1.35814 15.2846 1.81983 14.8908 2.41177C14.4971 3.00367 14.288 3.69907 14.29 4.40997C14.2926 5.35867 14.6707 6.26767 15.3415 6.93847C16.0123 7.60937 16.9213 7.98737 17.87 7.98997Z" fill="white"/>
<path d="M28.79 9.77997C29.4981 9.77997 30.1902 9.56997 30.779 9.17667C31.3677 8.78327 31.8265 8.22417 32.0975 7.56997C32.3685 6.91577 32.4394 6.19597 32.3012 5.50157C32.1631 4.80707 31.8221 4.16917 31.3215 3.66857C30.8208 3.16787 30.1829 2.82687 29.4884 2.68877C28.794 2.55067 28.0742 2.62147 27.42 2.89247C26.7659 3.16347 26.2067 3.62227 25.8134 4.21107C25.42 4.79977 25.21 5.49187 25.21 6.19997C25.21 7.14947 25.5872 8.06007 26.2586 8.73137C26.93 9.40277 27.8405 9.77997 28.79 9.77997Z" fill="white"/>
<path d="M7 9.77997C7.708 9.77997 8.4002 9.56997 8.9889 9.17667C9.5777 8.78327 10.0365 8.22417 10.3075 7.56997C10.5784 6.91577 10.6493 6.19597 10.5112 5.50157C10.3731 4.80707 10.0321 4.16917 9.5314 3.66857C9.0308 3.16787 8.3929 2.82687 7.6984 2.68877C7.004 2.55067 6.2841 2.62147 5.63 2.89247C4.9758 3.16347 4.4167 3.62227 4.0233 4.21107C3.6299 4.79977 3.42 5.49187 3.42 6.19997C3.42 7.14947 3.7972 8.06007 4.4685 8.73137C5.1399 9.40277 6.0505 9.77997 7 9.77997Z" fill="white"/>
<path d="M26 22.12L24.3 23.83V34.2L25.81 35.71H31.77L33.61 33.87V24.96L35.31 23.25V12.76L33.47 10.92H26V22.12Z" fill="white"/>
<path d="M2.13 33.87L3.97 35.71H9.92L11.44 34.2V23.83L9.73 22.13V10.92H2.27L0.419983 12.76V23.26L2.13 24.96V33.87Z" fill="white"/>
<path d="M22.54 9.11997H13.19L11.34 10.96V21.46L13.04 23.16V33.88L14.89 35.72H20.84L22.69 33.88V23.16L24.39 21.46V10.97L22.54 9.11997ZM18.61 9.77997L18.29 10.88H17.45L17.12 9.79997L18.61 9.77997ZM17.87 19.96L16.74 18.29L17.44 11.29H18.29L19 18.29L17.87 19.96Z" fill="white"/>
</svg>
