<svg width="52" height="52" viewBox="0 0 52 52" fill="none" xmlns="http://www.w3.org/2000/svg">
<path d="M51.73 0H0V51.73H51.73V0Z" fill="#04134E"/>
<path d="M22.3 16.2C23.0338 16.2 23.7511 15.9824 24.3612 15.5748C24.9713 15.1671 25.4468 14.5877 25.7276 13.9098C26.0084 13.2318 26.0819 12.4859 25.9387 11.7662C25.7956 11.0465 25.4422 10.3855 24.9234 9.86663C24.4045 9.34778 23.7435 8.99444 23.0238 8.85129C22.3041 8.70814 21.5582 8.78161 20.8803 9.06241C20.2024 9.34321 19.6229 9.81873 19.2153 10.4288C18.8076 11.0389 18.59 11.7562 18.59 12.49C18.59 12.9772 18.686 13.4596 18.8724 13.9098C19.0589 14.3599 19.3322 14.7689 19.6767 15.1134C20.0212 15.4579 20.4302 15.7311 20.8803 15.9176C21.3304 16.104 21.8128 16.2 22.3 16.2Z" fill="white"/>
<path d="M14.52 33.34V39.14L15.67 40.29L16.82 39.14V33.34L15.67 32.19L14.52 33.34Z" fill="white"/>
<path d="M31.45 18.72C32.1185 18.72 32.772 18.5218 33.3279 18.1504C33.8837 17.779 34.3169 17.2511 34.5727 16.6335C34.8286 16.0158 34.8955 15.3362 34.7651 14.6806C34.6347 14.0249 34.3127 13.4227 33.84 12.95C33.3673 12.4773 32.7651 12.1554 32.1094 12.0249C31.4538 11.8945 30.7742 11.9615 30.1566 12.2173C29.5389 12.4731 29.0111 12.9063 28.6397 13.4622C28.2683 14.018 28.07 14.6715 28.07 15.34C28.0687 15.7842 28.1552 16.2243 28.3246 16.635C28.494 17.0457 28.7429 17.4188 29.0571 17.733C29.3712 18.0471 29.7443 18.296 30.155 18.4654C30.5657 18.6348 31.0058 18.7213 31.45 18.72Z" fill="white"/>
<path d="M36.88 27.32V22.14L35.17 20.41H29.69V31.41L27.94 33.17V42.34L29.35 43.75H33.59L35.3 42.03V33.63L36.87 32.05L37.6 32.78V28.04L36.88 27.32ZM34.41 29.63L33.41 28.63V23.82L34.41 24.82V29.63Z" fill="white"/>
<path d="M28.29 19.97L26.4 18.06H18.23L16.32 19.97V30.85L18.08 32.63V41.87L20 43.77H24.67L26.55 41.86V32.63L28.3 30.86L28.29 19.97ZM23 29.35L22.34 30.01L21.68 29.35V21.04H23V29.35ZM23 20.48H21.64V19.3H23V20.48Z" fill="white"/>
</svg>
