<svg width="24" height="36" viewBox="0 0 24 36" fill="none" xmlns="http://www.w3.org/2000/svg">
<path d="M8.30002 8.2C9.03382 8.2 9.75112 7.9824 10.3612 7.5748C10.9713 7.1671 11.4468 6.5877 11.7276 5.9098C12.0084 5.2318 12.0819 4.4859 11.9387 3.7662C11.7956 3.0465 11.4422 2.3855 10.9234 1.86663C10.4045 1.34778 9.74352 0.994436 9.02382 0.851286C8.30412 0.708136 7.55822 0.781607 6.88032 1.06241C6.20242 1.34321 5.62292 1.81873 5.21532 2.4288C4.80762 3.0389 4.59002 3.7562 4.59002 4.49C4.59002 4.9772 4.68602 5.4596 4.87242 5.9098C5.05892 6.3599 5.33222 6.7689 5.67672 7.1134C6.02122 7.4579 6.43022 7.7311 6.88032 7.9176C7.33042 8.104 7.81282 8.2 8.30002 8.2Z" fill="white"/>
<path d="M0.52002 25.34V31.14L1.67002 32.29L2.82002 31.14V25.34L1.67002 24.19L0.52002 25.34Z" fill="white"/>
<path d="M17.45 10.72C18.1185 10.72 18.772 10.5218 19.3279 10.1504C19.8837 9.779 20.3169 9.2511 20.5727 8.6335C20.8286 8.0158 20.8955 7.3362 20.7651 6.6806C20.6347 6.0249 20.3127 5.4227 19.84 4.95C19.3673 4.4773 18.7651 4.1554 18.1094 4.0249C17.4538 3.8945 16.7742 3.9615 16.1566 4.2173C15.5389 4.4731 15.0111 4.9063 14.6397 5.4622C14.2683 6.018 14.07 6.6715 14.07 7.34C14.0687 7.7842 14.1552 8.2243 14.3246 8.635C14.494 9.0457 14.7429 9.4188 15.0571 9.733C15.3712 10.0471 15.7443 10.296 16.155 10.4654C16.5657 10.6348 17.0058 10.7213 17.45 10.72Z" fill="white"/>
<path d="M22.88 19.32V14.14L21.17 12.41H15.69V23.41L13.94 25.17V34.34L15.35 35.75H19.59L21.3 34.03V25.63L22.87 24.05L23.6 24.78V20.04L22.88 19.32ZM20.41 21.63L19.41 20.63V15.82L20.41 16.82V21.63Z" fill="white"/>
<path d="M14.29 11.97L12.4 10.06H4.23002L2.32002 11.97V22.85L4.08002 24.63V33.87L6.00002 35.77H10.67L12.55 33.86V24.63L14.3 22.86L14.29 11.97ZM9.00002 21.35L8.34002 22.01L7.68002 21.35V13.04H9.00002V21.35ZM9.00002 12.48H7.64002V11.3H9.00002V12.48Z" fill="white"/>
</svg>
